<?xml version="1.0" encoding="UTF-8"?>
<svg id="Layer_1" xmlns="http://www.w3.org/2000/svg" version="1.1" viewBox="0 0 408 484.8">
  <!-- Generator: Adobe Illustrator 29.0.1, SVG Export Plug-In . SVG Version: 2.1.0 Build 192)  -->
  <defs>
    <style>
      .st0 {
        fill: #fff;
      }

      .st1 {
        fill: #e1251b;
      }

      .st2 {
        fill: #0033a1;
      }
    </style>
  </defs>
  <path class="st2" d="M149.8,411.9C59.8,391.9.6,402.4.6,402.4V79.9c0-18.5,14.9-33.6,33.2-33.6h337.6c15.5,0,35.9,10.3,35.9,34.9v233.7c0,72.2-46.7,123.6-112.1,123.6s-82.1-12.5-145.5-26.6Z"/>
  <g>
    <g>
      <path class="st0" d="M149.5,226.9c6.8,6.2,15.3,8,23.1,5.1,1.2-.4,3.3-1.3,7.1-3.6-1.2,4.4-1.8,8.8-1.7,13.1,0,4,1.7,7.6,4.6,10.1,2.8,2.4,6.6,3.6,11.3,3.6s3.6-.2,5.6-.5c2.7-.4,5.2-2,6.6-4.4,1.5-2.3,1.9-5.2,1.1-7.9-2.6-8.7-1.4-18.8,3.1-28.6,9.1,14.1,14.8,16.8,16.9,17.8,3.8,1.8,10.3,3.1,19.5-1.2,14.7-6.8,33.4-27,39.4-49.2,4.2-15.6-4.8-22.3-7.6-24-5.1-3-11.9-3.6-19.7-1.8,6.6-9.7,11.1-19.1,12.9-27.7,3.7-16.9-3.8-25.4-8.6-28.9-7-5.2-14.7-8.6-29.8-8.6s-23.3,3.1-32.2,7.9c-9.4,5-16.3,13.6-19.9,24.8-3.4,10.6-3.5,22.9-.6,35.3-6.1-2.9-12.4-4.2-18.6-3.5-11.7,1.2-20.7,9.3-24,21.7-5.1,19.1-.5,39.9,11.3,50.6Z"/>
      <path class="st0" d="M386.4,288c0-1.7-1.1-2.5-3.2-2.5h-2.3c-.7,0-1.1.4-1.1,1.2v5.5c0,.8.3,1.2.9,1.2h.3c.6,0,.9-.4.9-1v-1.7h.7l1.3,1.9c.4.6.9.8,1.2.8.7,0,1.3-.6,1.2-.8l-1.8-2.3c.1,0,.2,0,.4-.2.8-.3,1.4-1,1.4-2.1ZM383.1,289.1h-1.3v-2h1.2c.9,0,1.3.3,1.3,1s-.4,1-1.2,1Z"/>
      <path class="st0" d="M382.9,281.9c-4.2,0-7.3,3.2-7.3,7.5s3,7.5,7.3,7.5,7.3-3.2,7.3-7.5-3-7.4-7.2-7.4ZM382.9,295.5c-3.4,0-5.9-2.6-5.9-6.1s2.4-6.1,5.8-6.1,5.9,2.6,5.9,6.1-2.4,6.1-5.8,6.1Z"/>
      <path class="st0" d="M351.1,280.7c-4.7,0-9.1,1.3-12.9,3.8-2.9-1.9-6.4-2.9-10.4-2.9-7,0-11.8,2.6-13.4,7.4-5-5-12.9-8.3-23.8-8.3s-19.8,3.4-27.2,9.1c-2.8-4.3-7.8-7.3-14.2-8.4-7.7-1.2-11,2.3-12.3,5l-6.8,12.1c-1.1-4.2-2.9-8.3-6.1-11.6-3.8-3.8-8.7-5.7-14.5-5.7s-11.8,2.5-15.5,7.1c-.1.2-.2.3-.3.5-6.1-5-14.1-8-23.2-8s-17.8,3.1-24.5,8.4l2.2-10.8c1.5-6.6-.6-11-2.6-13.5-2.1-2.6-6.1-5.8-13.5-5.8h-1.7c-6.1,0-14,2.6-16.7,15.2l-.3,1.5c-.6-.7-1.3-1.5-1.9-2.1-4.8-4.9-13.8-10.7-29.3-10.7-27.6,0-50,23.7-50,52.9s17.4,41.3,43.4,41.3,21.1-3.6,28-9.8c.5.9,1,1.7,1.7,2.5,2.6,3.2,7.6,7,16.8,7s15.3-4.8,17.6-10.2c6.3,6.5,15.3,10.4,25.9,10.4,16.1,0,29.4-9,35.8-22.6l1.1,7.6c1.1,8.6,8.2,14.2,18.1,14.2s15.9-5.7,18-9.1l9.4-14.7c3.3,15.2,16.2,24.6,34.6,24.6s18-2.4,23.9-7.1c.1.2.2.3.4.5,3,3.7,7.7,5.7,13.3,5.7h1.8c6.1,0,14-2.6,16.7-15.2l3.1-15c1.7-8.2,3.9-10.7,4.4-11.3,0,0,0,0,0,0,0,0,.2.2.2.3,1.1,1.1,5.1,4.5,11.3,1.9,5.6-2.3,12.2-8.6,12.2-18.8s-8.2-17.3-19.1-17.3Z"/>
    </g>
    <g>
      <path class="st1" d="M203.4,196.5c-14.3,13.5-27.1,23.8-34.1,26.5-14.2,5.4-28.6-18.6-21.8-44.2,6.2-23.3,36.8-20.2,55.9,17.7M205.6,202.7c0,0,0-.1,0-.2-10.5,11.8-18,25.3-17.9,38.8,0,4.2,4.8,4.7,10.5,3.8-3.7-12.5-1.6-27.9,7.4-42.4M211.5,196.5c7.1,13.5,14.3,23.8,20,26.5,11.3,5.4,38.6-18.6,45.4-44.2,6.2-23.3-26-20.2-65.4,17.7M257.4,106.5c-5.6-4.2-11.5-6.8-24.1-6.8s-19.9,2.6-27.7,6.8c-7.4,4-12.6,10.8-15.3,19.2-4.6,14.3-2.2,33.3,8,51,3.1,5.4,6.6,10.2,10.5,14.5,6.2-4.3,12.3-9.1,18.3-14.5,19.6-17.7,32.2-36.7,35.3-51,1.8-8.4.4-15.2-5-19.2"/>
      <path class="st1" d="M41.9,315.7c0-23.1,17-43.3,40.4-43.3s18.4,3.7,22.5,7.9c3.2,3,4.6,6.8,4.6,9.3,0,8.8-10.6,9.7-11,9.1-2.6-7.4-7.8-11.4-16.1-11.4-13.2,0-23.3,12.3-23.3,26.5s7.3,18.5,17.6,18.5,13.8-3.3,17.4-9.3c.3-.6,8.4,1.3,8.4,8s-1.3,5.1-4,7.8c-4.5,4.6-12.8,8.4-22.8,8.4-20.4,0-33.8-12-33.8-31.7Z"/>
      <path class="st1" d="M111.4,332l11.8-55.8c1.2-5.7,3.2-7.6,7.3-7.6h1.7c4.3,0,8.1,1.8,6.7,7.6l-11.7,56.3c-1.3,6-.3,8.4,4.1,9.1.2.1-.8,5.6-9,5.6s-12.7-6.2-10.8-15.2Z"/>
      <path class="st1" d="M140.1,322.5c0-16.7,11.5-32.2,30.4-32.2s25.6,10.8,25.6,24.9-11.5,32.2-30.4,32.2-25.6-10.8-25.6-24.9ZM182.4,315.7c0-7.7-5.3-13.4-12.4-13.4s-16.3,9.6-16.3,19.6,5.3,13.4,12.4,13.4,16.3-9.6,16.3-19.6Z"/>
      <path class="st1" d="M256.4,298.6c0,2.6-.9,4.5-3.3,8.2l-22.5,35.1c-2.5,4-6.8,4.7-9.9,4.7s-8.1-1.4-8.6-5.8l-4.4-31c-1.1-8.5-3.6-10.7-7.9-11-.3,0,.9-8,9.8-8s5.7.9,7.7,2.9c3,3.1,4.3,8,4.9,15.5l1.7,20.6,21.7-38.9c.1-.3,10.9.3,10.9,7.7Z"/>
      <path class="st1" d="M256.9,324.2c0-19.7,14.9-33.9,33.8-33.9s21.3,6.5,21.3,15.8-7.2,17.7-30.9,17.7-6.7-.1-10.7-.4c.1.9.3,1.7.6,2.3.4,6.2,4.7,10.4,12.2,10.4s12.1-2.9,15.7-7.6c.2-.3,6.7.8,6.7,6s-1,4.2-3.1,6.4c-4,4-10.4,6.5-19.6,6.5-17.4,0-25.9-9.7-25.9-23.2ZM279.7,314.6c14.6,0,18.9-3.5,18.9-7.8s-2.9-5.8-8.7-5.8-14.7,5.7-17.8,13.3c2.9.3,5.4.3,7.6.3Z"/>
      <path class="st1" d="M313.7,338.9l9.8-46.8c.1-.3,2-.9,4.3-.9,3.4,0,6.8,1.4,7.9,5.5.4,1.3.7,2.9.6,4.7,3.1-6.7,8.2-11,14.8-11s9.5,3,9.5,7.7c0,7.9-6.8,10.4-7.1,10.1-1.4-1.7-3.6-3.1-7.4-3.1-6.8,0-11.3,7.6-13.6,19l-3.1,14.9c-1.2,5.7-3.3,7.6-7.3,7.6h-1.8c-4.2,0-7.9-1.8-6.7-7.6Z"/>
    </g>
  </g>
</svg>