<?xml version="1.0" encoding="utf-8"?>
<!-- Generator: Adobe Illustrator 21.1.0, SVG Export Plug-In . SVG Version: 6.00 Build 0)  -->
<svg version="1.1" id="Layer_1" xmlns="http://www.w3.org/2000/svg" xmlns:xlink="http://www.w3.org/1999/xlink" width="250" height="124.6"
	 viewBox="0 0 250 124.6" enable-background="new 0 0 250 124.6" xml:space="preserve">
<g>
	<g>
		<path fill="#DDB208" d="M213.3,2.2c2.3,0,4.2,1.9,4.2,4.2c0,2.3-1.9,4.2-4.2,4.2c-2.3,0-4.2-1.9-4.2-4.2
			C209.1,4.1,211,2.2,213.3,2.2"/>
		<path fill="#00467F" d="M6.7,52.5h8.9c12.7,0,18.7,7,18.7,17.7c0,14.2-6.6,20.9-20.2,20.9H6.7V52.5z M0,47.6V96h14.4
			c17.1,0,27.4-9.6,27.4-25.6c0-11.6-6.8-22.7-26.3-22.7H0z"/>
		<path fill="#00467F" d="M226,61.5h-6.1V96h6.2V75.2c0-6.6,4.5-10,9.4-10c5.6,0,8.4,3.4,8.4,9.9V96h6.2V73.8
			c0-8.7-4.3-13.1-12.2-13.1c-3.6,0-8.6,1.7-11.8,5.1V61.5z"/>
	</g>
	<rect x="203" y="61.5" fill="#00467F" width="6.2" height="34.5"/>
	<rect x="185.6" y="45.2" fill="#00467F" width="6.2" height="50.8"/>
	<g>
		<path fill="#00467F" d="M152.1,75c0.2-4.4,2.8-9.9,9.5-9.9c5.5,0,7.7,4.6,7.7,9.9H152.1z M174.9,79.1c0.7-9.1-2.8-18.5-13.3-18.5
			c-7.8,0-16.4,5.5-16.4,17.4c0,12.2,7.1,18.8,17.9,18.8c3.6,0,7.9-1.4,11.5-4l-1.8-3.4c-2.4,1.8-6.3,3-9.5,3
			c-6.8,0-11.7-6.4-11.7-13.3H174.9z"/>
		<path fill="#00467F" d="M91.5,61.5h-6.1V96h6.2V75.5c0-6.6,3.4-10,8.6-10c5,0,7.8,3.5,7.8,9.9V96h6.2V75.2c0-7,3.6-9.7,8.8-9.7
			c6.4,0,7.6,5,7.6,9.9V96h6.2V72.9c-0.2-7.3-4.1-12.3-11.7-12.3c-3.9,0-8.6,2.1-11.9,5.1c-2.1-2.8-5.5-5.1-11-5.1
			c-3.8,0-7.9,1.8-10.8,5.1V61.5z"/>
		<path fill="#00467F" d="M68.6,75.8C69.4,86.5,63.7,92,59.3,92c-2.5,0-5-2.3-5-5.9c0-4.4,2.8-7,8.3-8.6L68.6,75.8z M68.6,90.1
			c0,2.2,0.1,4.4,1,5.9h6.8c-1.2-2.5-1.5-5.8-1.5-8.4V72.4c0-10.1-7.6-11.7-12.8-11.7c-4.8,0-8.4,1.4-11.8,4.7l2.4,3.1
			c2.5-2.1,5-3.7,9-3.7c3.4,0,6.6,2.7,6.9,6.9l-8.4,2.6c-7.2,2.1-12.3,5.9-12.3,11.9c0,6.5,4,10.6,9.8,10.6c3.2,0,6.2-2.1,8.6-4.6
			L68.6,90.1z"/>
	</g>
	<rect y="101.1" fill="#DDB208" width="249.9" height="0.9"/>
	<g>
		<path fill="#00467F" d="M33.7,117.7c0-0.5,0.3-1,0.6-1.4c0.4-0.4,0.9-0.6,1.5-0.6c0.6,0,1.1,0.2,1.4,0.5c0.3,0.3,0.5,0.8,0.5,1.4
			H33.7z M38.9,118c0-1-0.3-1.8-0.8-2.3c-0.5-0.5-1.2-0.8-2.2-0.8c-1,0-1.8,0.3-2.5,1c-0.6,0.7-0.9,1.6-0.9,2.7c0,1.2,0.3,2,1,2.7
			c0.6,0.6,1.6,0.9,2.7,0.9c0.5,0,0.9-0.1,1.3-0.2c0.4-0.1,0.8-0.3,1.2-0.4v-1.3h-0.1c-0.2,0.2-0.5,0.4-1,0.6
			c-0.5,0.2-1,0.3-1.4,0.3c-0.4,0-0.7-0.1-1-0.2c-0.3-0.1-0.6-0.3-0.8-0.4c-0.2-0.2-0.4-0.5-0.5-0.8c-0.1-0.3-0.2-0.7-0.2-1.1h5.1
			V118z M30.4,115l-2.1,5.5l-2.2-5.5h-1.3l2.8,7h1.2l2.8-7H30.4z M23.3,122h-1.2v-7h1.2V122z M23.4,113.9H22v-1.2h1.3V113.9z
			 M19.8,122h-1.2v-9.7h1.2V122z"/>
		<path fill="#DDB208" d="M47.9,117.6c-0.4-0.4-0.8-0.5-1.3-0.5c-0.5,0-0.9,0.2-1.3,0.5c-0.3,0.3-0.5,0.8-0.5,1.3
			c0,0.5,0.2,0.9,0.5,1.3c0.3,0.3,0.8,0.5,1.3,0.5c0.5,0,0.9-0.2,1.3-0.5c0.3-0.4,0.5-0.8,0.5-1.3C48.5,118.3,48.3,117.9,47.9,117.6
			"/>
		<path fill="#00467F" d="M74.3,117.7c0-0.5,0.3-1,0.6-1.4c0.4-0.4,0.9-0.6,1.5-0.6s1.1,0.2,1.4,0.5c0.3,0.3,0.5,0.8,0.5,1.4H74.3z
			 M79.4,118c0-1-0.3-1.8-0.8-2.3c-0.5-0.5-1.2-0.8-2.2-0.8c-1,0-1.8,0.3-2.5,1c-0.6,0.7-0.9,1.6-0.9,2.7c0,1.2,0.3,2,1,2.7
			c0.7,0.6,1.6,0.9,2.7,0.9c0.5,0,0.9-0.1,1.3-0.2c0.4-0.1,0.8-0.3,1.2-0.4v-1.3h-0.1c-0.2,0.2-0.5,0.4-1,0.6
			c-0.5,0.2-1,0.3-1.4,0.3c-0.4,0-0.7-0.1-1-0.2c-0.3-0.1-0.6-0.3-0.8-0.4c-0.2-0.2-0.4-0.5-0.5-0.8c-0.1-0.3-0.2-0.7-0.2-1.1h5.1
			V118z M71,115l-2.1,5.5l-2.2-5.5h-1.3l2.8,7h1.2l2.8-7H71z M62.7,120.5c-0.4,0.4-0.8,0.7-1.5,0.7c-0.6,0-1.1-0.2-1.5-0.7
			c-0.4-0.5-0.5-1.1-0.5-2c0-0.9,0.2-1.6,0.5-2c0.3-0.4,0.8-0.7,1.5-0.7c0.6,0,1.1,0.2,1.5,0.7c0.4,0.4,0.5,1.1,0.5,2
			C63.2,119.4,63.1,120.1,62.7,120.5 M63.6,115.8c-0.6-0.7-1.4-1-2.3-1c-1,0-1.8,0.3-2.3,1c-0.6,0.7-0.9,1.6-0.9,2.7
			c0,1.1,0.3,2,0.9,2.7c0.6,0.7,1.4,1,2.3,1c1,0,1.8-0.3,2.3-1c0.6-0.7,0.9-1.6,0.9-2.7C64.4,117.4,64.2,116.5,63.6,115.8 M56.2,122
			H55v-9.7h1.2V122z"/>
		<path fill="#DDB208" d="M88.5,117.6c-0.4-0.4-0.8-0.5-1.3-0.5c-0.5,0-0.9,0.2-1.3,0.5c-0.4,0.3-0.5,0.8-0.5,1.3
			c0,0.5,0.2,0.9,0.5,1.3c0.3,0.3,0.8,0.5,1.3,0.5c0.5,0,0.9-0.2,1.3-0.5c0.3-0.4,0.5-0.8,0.5-1.3C89,118.3,88.9,117.9,88.5,117.6"
			/>
		<path fill="#00467F" d="M125.6,117.5c0-0.9-0.2-1.5-0.6-2c-0.4-0.5-1-0.7-1.7-0.7c-0.4,0-0.8,0.1-1.2,0.3
			c-0.4,0.2-0.8,0.4-1.1,0.7V115h-1.2v7h1.2v-5.2c0.3-0.2,0.7-0.4,1-0.6c0.3-0.2,0.7-0.2,1-0.2c0.3,0,0.6,0,0.8,0.1
			c0.2,0.1,0.3,0.2,0.5,0.4c0.1,0.2,0.2,0.4,0.2,0.7c0,0.3,0.1,0.6,0.1,0.9v4h1.2V117.5z M118.7,115.1c-0.2,0-0.3,0-0.4-0.1
			c-0.1,0-0.2,0-0.4,0c-0.4,0-0.7,0.1-1.1,0.2c-0.4,0.2-0.8,0.4-1.2,0.8v-1h-1.2v7h1.2v-5c0.3-0.3,0.6-0.5,1-0.6
			c0.3-0.2,0.7-0.2,1-0.2c0.2,0,0.4,0,0.6,0c0.2,0,0.3,0,0.5,0.1h0.1V115.1z M110,120.9c-0.3,0.2-0.7,0.2-1.1,0.2
			c-0.5,0-0.9-0.1-1.1-0.3c-0.2-0.2-0.4-0.5-0.4-0.9c0-0.4,0.1-0.6,0.3-0.8c0.2-0.2,0.5-0.4,0.8-0.4c0.3-0.1,0.7-0.1,1.1-0.2
			c0.5,0,0.9-0.1,1.3-0.1v1.9C110.6,120.5,110.3,120.7,110,120.9 M112.1,117.3c0-0.4-0.1-0.8-0.2-1.1c-0.1-0.3-0.3-0.6-0.6-0.7
			c-0.3-0.2-0.6-0.3-0.9-0.4c-0.4-0.1-0.8-0.1-1.3-0.1c-0.4,0-0.8,0-1.3,0.1c-0.4,0.1-0.8,0.1-1,0.2v1.2h0.1
			c0.4-0.2,0.8-0.3,1.2-0.4c0.4-0.1,0.7-0.1,1-0.1c0.3,0,0.5,0,0.7,0.1c0.2,0,0.4,0.1,0.6,0.2c0.2,0.1,0.3,0.2,0.4,0.4
			c0.1,0.2,0.1,0.4,0.1,0.7v0.2c-0.7,0-1.3,0.1-1.9,0.1c-0.6,0.1-1.1,0.2-1.5,0.4c-0.4,0.2-0.7,0.4-1,0.8c-0.2,0.3-0.3,0.8-0.3,1.3
			c0,0.6,0.2,1.2,0.7,1.6c0.4,0.4,1,0.6,1.6,0.6c0.3,0,0.6,0,0.9-0.1c0.3-0.1,0.5-0.1,0.7-0.2c0.2-0.1,0.3-0.2,0.5-0.3
			c0.2-0.1,0.3-0.2,0.4-0.3v0.7h1.2V117.3z M99.8,117.7c0-0.5,0.3-1,0.6-1.4c0.4-0.4,0.9-0.6,1.5-0.6c0.6,0,1.1,0.2,1.4,0.5
			c0.3,0.3,0.5,0.8,0.5,1.4H99.8z M104.9,118c0-1-0.3-1.8-0.8-2.3c-0.5-0.5-1.2-0.8-2.2-0.8c-1,0-1.8,0.3-2.5,1
			c-0.6,0.7-0.9,1.6-0.9,2.7c0,1.2,0.3,2,1,2.7c0.6,0.6,1.6,0.9,2.7,0.9c0.5,0,0.9-0.1,1.3-0.2c0.4-0.1,0.8-0.3,1.2-0.4v-1.3h-0.1
			c-0.2,0.2-0.6,0.4-1,0.6c-0.5,0.2-1,0.3-1.4,0.3c-0.4,0-0.7-0.1-1-0.2c-0.3-0.1-0.6-0.3-0.8-0.4c-0.2-0.2-0.4-0.5-0.5-0.8
			c-0.1-0.3-0.2-0.7-0.2-1.1h5.1V118z M96.8,122h-1.2v-9.7h1.2V122z"/>
		<path fill="#DDB208" d="M135.2,117.6c-0.3-0.4-0.8-0.5-1.3-0.5c-0.5,0-0.9,0.2-1.3,0.5c-0.3,0.3-0.5,0.8-0.5,1.3
			c0,0.5,0.2,0.9,0.5,1.3c0.3,0.3,0.8,0.5,1.3,0.5c0.5,0,0.9-0.2,1.3-0.5c0.4-0.4,0.5-0.8,0.5-1.3
			C135.7,118.3,135.5,117.9,135.2,117.6"/>
		<path fill="#00467F" d="M230.8,115l-2.2,5.2l-2.1-5.2h-1.3l2.8,6.6l-1.3,2.9h1.2l4.1-9.5H230.8z M224.5,120.3L224.5,120.3
			c-0.1,0.1-0.3,0.2-0.4,0.3c-0.1,0.1-0.3,0.2-0.5,0.3c-0.2,0.1-0.4,0.2-0.7,0.2c-0.2,0.1-0.5,0.1-0.7,0.1c-0.7,0-1.2-0.2-1.6-0.7
			c-0.4-0.5-0.6-1.1-0.6-1.9c0-0.9,0.2-1.5,0.6-2c0.4-0.4,0.9-0.7,1.6-0.7c0.4,0,0.7,0.1,1.1,0.2c0.4,0.2,0.7,0.4,1.1,0.6h0.1v-1.3
			c-0.3-0.2-0.7-0.3-1.1-0.4c-0.4-0.1-0.8-0.2-1.2-0.2c-1,0-1.9,0.3-2.5,1c-0.6,0.7-0.9,1.5-0.9,2.7c0,0.6,0.1,1.1,0.2,1.6
			c0.2,0.5,0.4,0.8,0.7,1.1c0.3,0.3,0.7,0.5,1.1,0.7c0.4,0.1,0.9,0.2,1.4,0.2c0.4,0,0.8-0.1,1.1-0.2c0.4-0.1,0.7-0.2,1.1-0.4V120.3z
			 M215,120.9c-0.3,0.2-0.7,0.2-1.1,0.2c-0.5,0-0.9-0.1-1.1-0.3s-0.4-0.5-0.4-0.9c0-0.4,0.1-0.6,0.3-0.8c0.2-0.2,0.5-0.4,0.8-0.4
			c0.3-0.1,0.7-0.1,1.1-0.2c0.5,0,0.9-0.1,1.3-0.1v1.9C215.7,120.5,215.3,120.7,215,120.9 M217.1,117.3c0-0.4-0.1-0.8-0.2-1.1
			c-0.1-0.3-0.3-0.6-0.6-0.7c-0.3-0.2-0.6-0.3-0.9-0.4c-0.4-0.1-0.8-0.1-1.3-0.1c-0.4,0-0.8,0-1.3,0.1c-0.4,0.1-0.8,0.1-1,0.2v1.2
			h0.1c0.4-0.2,0.8-0.3,1.2-0.4c0.4-0.1,0.7-0.1,1-0.1c0.3,0,0.5,0,0.7,0.1c0.2,0,0.4,0.1,0.6,0.2c0.2,0.1,0.3,0.2,0.4,0.4
			c0.1,0.2,0.1,0.4,0.1,0.7v0.2c-0.7,0-1.3,0.1-1.9,0.1c-0.6,0.1-1.1,0.2-1.5,0.4c-0.4,0.2-0.7,0.4-1,0.8c-0.2,0.3-0.3,0.8-0.3,1.3
			c0,0.6,0.2,1.2,0.7,1.6c0.4,0.4,1,0.6,1.6,0.6c0.3,0,0.6,0,0.9-0.1c0.3-0.1,0.5-0.1,0.7-0.2c0.2-0.1,0.3-0.2,0.5-0.3
			c0.2-0.1,0.3-0.2,0.4-0.3v0.7h1.2V117.3z M207.3,120.6c-0.3,0.1-0.7,0.2-1,0.2c-0.6,0-1.1-0.2-1.4-0.6c-0.3-0.4-0.4-1-0.4-1.8
			c0-0.8,0.2-1.5,0.6-1.9c0.4-0.4,0.9-0.6,1.5-0.6c0.3,0,0.5,0,0.8,0.1c0.3,0.1,0.6,0.2,0.9,0.3v3.8
			C207.9,120.3,207.6,120.5,207.3,120.6 M209.4,115h-1.1l-0.1,0.3c-0.3-0.2-0.6-0.3-0.9-0.4c-0.3-0.1-0.6-0.1-1-0.1
			c-0.4,0-0.8,0.1-1.1,0.2c-0.4,0.2-0.7,0.4-1,0.7c-0.3,0.3-0.5,0.7-0.7,1.1c-0.2,0.4-0.3,1-0.3,1.6c0,1.1,0.2,1.9,0.7,2.5
			c0.5,0.6,1.1,0.9,2,0.9c0.5,0,0.9-0.1,1.2-0.2c0.3-0.1,0.7-0.3,1-0.6v0.6c0,0.3,0,0.5-0.1,0.8c-0.1,0.2-0.2,0.4-0.3,0.6
			c-0.1,0.2-0.3,0.3-0.6,0.4c-0.3,0.1-0.6,0.1-1,0.1c-0.4,0-0.8-0.1-1.2-0.2c-0.4-0.1-0.7-0.2-0.9-0.3H204v1.2
			c0.3,0.1,0.7,0.2,1,0.2c0.4,0,0.7,0.1,1.1,0.1c1.1,0,1.9-0.3,2.5-0.8c0.5-0.6,0.8-1.4,0.8-2.6V115z M196.8,117.7
			c0-0.5,0.3-1,0.6-1.4c0.4-0.4,0.9-0.6,1.5-0.6c0.6,0,1.1,0.2,1.4,0.5c0.3,0.3,0.5,0.8,0.5,1.4H196.8z M202,118
			c0-1-0.3-1.8-0.8-2.3c-0.5-0.5-1.2-0.8-2.2-0.8c-1,0-1.8,0.3-2.5,1c-0.6,0.7-0.9,1.6-0.9,2.7c0,1.2,0.3,2,1,2.7
			c0.6,0.6,1.6,0.9,2.7,0.9c0.5,0,0.9-0.1,1.3-0.2c0.4-0.1,0.8-0.3,1.2-0.4v-1.3h-0.1c-0.2,0.2-0.5,0.4-1,0.6
			c-0.5,0.2-1,0.3-1.4,0.3c-0.4,0-0.7-0.1-1-0.2c-0.3-0.1-0.6-0.3-0.8-0.4c-0.2-0.2-0.4-0.5-0.5-0.8c-0.1-0.3-0.2-0.7-0.2-1.1h5.1
			V118z M193.8,122h-1.2v-9.7h1.2V122z M183.8,120.9c-0.3,0.2-0.7,0.2-1.1,0.2c-0.5,0-0.9-0.1-1.1-0.3s-0.4-0.5-0.4-0.9
			c0-0.4,0.1-0.6,0.3-0.8c0.2-0.2,0.5-0.4,0.8-0.4c0.3-0.1,0.7-0.1,1.1-0.2c0.5,0,0.9-0.1,1.3-0.1v1.9
			C184.4,120.5,184.1,120.7,183.8,120.9 M185.9,117.3c0-0.4-0.1-0.8-0.2-1.1c-0.1-0.3-0.3-0.6-0.6-0.7c-0.3-0.2-0.6-0.3-0.9-0.4
			c-0.4-0.1-0.8-0.1-1.3-0.1c-0.4,0-0.8,0-1.3,0.1c-0.4,0.1-0.8,0.1-1,0.2v1.2h0.1c0.4-0.2,0.8-0.3,1.2-0.4c0.4-0.1,0.7-0.1,1-0.1
			c0.3,0,0.5,0,0.7,0.1c0.2,0,0.4,0.1,0.6,0.2c0.2,0.1,0.3,0.2,0.4,0.4c0.1,0.2,0.1,0.4,0.1,0.7v0.2c-0.7,0-1.3,0.1-1.9,0.1
			c-0.6,0.1-1.1,0.2-1.5,0.4c-0.4,0.2-0.7,0.4-1,0.8c-0.2,0.3-0.3,0.8-0.3,1.3c0,0.6,0.2,1.2,0.7,1.6c0.4,0.4,1,0.6,1.6,0.6
			c0.3,0,0.6,0,0.9-0.1c0.3-0.1,0.5-0.1,0.7-0.2c0.2-0.1,0.3-0.2,0.5-0.3c0.2-0.1,0.3-0.2,0.4-0.3v0.7h1.2V117.3z M169.1,117.7
			c0.1-0.5,0.3-1,0.6-1.4c0.4-0.4,0.9-0.6,1.5-0.6c0.6,0,1.1,0.2,1.4,0.5c0.3,0.3,0.5,0.8,0.5,1.4H169.1z M174.2,118
			c0-1-0.3-1.8-0.8-2.3c-0.5-0.5-1.2-0.8-2.2-0.8c-1,0-1.8,0.3-2.5,1c-0.6,0.7-0.9,1.6-0.9,2.7c0,1.2,0.3,2,1,2.7
			c0.7,0.6,1.6,0.9,2.7,0.9c0.5,0,0.9-0.1,1.3-0.2c0.4-0.1,0.8-0.3,1.2-0.4v-1.3H174c-0.2,0.2-0.5,0.4-1,0.6c-0.5,0.2-1,0.3-1.4,0.3
			c-0.4,0-0.7-0.1-1-0.2c-0.3-0.1-0.6-0.3-0.8-0.4c-0.2-0.2-0.4-0.5-0.5-0.8c-0.1-0.3-0.2-0.7-0.2-1.1h5.1V118z M165.7,115l-2.1,5.5
			l-2.2-5.5h-1.3l2.8,7h1.2l2.8-7H165.7z M156.6,120.9c-0.3,0.2-0.7,0.2-1.1,0.2c-0.5,0-0.9-0.1-1.1-0.3c-0.2-0.2-0.4-0.5-0.4-0.9
			c0-0.4,0.1-0.6,0.3-0.8c0.2-0.2,0.5-0.4,0.8-0.4c0.3-0.1,0.7-0.1,1.1-0.2c0.5,0,0.9-0.1,1.3-0.1v1.9
			C157.3,120.5,157,120.7,156.6,120.9 M158.8,117.3c0-0.4-0.1-0.8-0.2-1.1c-0.1-0.3-0.3-0.6-0.6-0.7c-0.3-0.2-0.6-0.3-0.9-0.4
			c-0.4-0.1-0.8-0.1-1.3-0.1c-0.4,0-0.8,0-1.3,0.1c-0.4,0.1-0.8,0.1-1,0.2v1.2h0.1c0.4-0.2,0.8-0.3,1.2-0.4c0.4-0.1,0.7-0.1,1-0.1
			c0.3,0,0.5,0,0.7,0.1c0.2,0,0.4,0.1,0.6,0.2c0.2,0.1,0.3,0.2,0.4,0.4c0.1,0.2,0.1,0.4,0.1,0.7v0.2c-0.7,0-1.3,0.1-1.9,0.1
			c-0.6,0.1-1.1,0.2-1.5,0.4c-0.4,0.2-0.7,0.4-1,0.8c-0.2,0.3-0.3,0.8-0.3,1.3c0,0.6,0.2,1.2,0.7,1.6c0.4,0.4,1,0.6,1.6,0.6
			c0.3,0,0.6,0,0.9-0.1c0.3-0.1,0.5-0.1,0.7-0.2c0.2-0.1,0.3-0.2,0.5-0.3c0.2-0.1,0.3-0.2,0.4-0.3v0.7h1.2V117.3z M146.4,117.7
			c0.1-0.5,0.3-1,0.6-1.4c0.4-0.4,0.9-0.6,1.5-0.6c0.6,0,1.1,0.2,1.4,0.5c0.3,0.3,0.5,0.8,0.5,1.4H146.4z M151.6,118
			c0-1-0.3-1.8-0.8-2.3c-0.5-0.5-1.2-0.8-2.2-0.8c-1,0-1.8,0.3-2.5,1c-0.6,0.7-0.9,1.6-0.9,2.7c0,1.2,0.3,2,1,2.7
			c0.7,0.6,1.6,0.9,2.7,0.9c0.5,0,0.9-0.1,1.3-0.2c0.4-0.1,0.8-0.3,1.2-0.4v-1.3h-0.1c-0.2,0.2-0.5,0.4-1,0.6
			c-0.5,0.2-1,0.3-1.4,0.3c-0.4,0-0.7-0.1-1-0.2c-0.3-0.1-0.6-0.3-0.8-0.4c-0.2-0.2-0.4-0.5-0.5-0.8c-0.1-0.3-0.2-0.7-0.2-1.1h5.1
			V118z M143.4,122h-1.2v-9.7h1.2V122z"/>
		<path fill="#DDB208" d="M191.6,0.5l-6.5,8.6c0,0,10.8-8,14.6,0.4c5.5,12.3-20.9,34.2-28.8,40c-0.4,0.3,49.7-28,33-46.5
			C199.6-1.6,191.6,0.5,191.6,0.5"/>
	</g>
</g>
</svg>
