<?xml version="1.0" encoding="UTF-8" standalone="no"?>
<svg
   viewBox="0 0 512 515.79199"
   width="512"
   height="515.79199"
   fill="none"
   version="1.1"
   id="svg2"
   sodipodi:docname="game-logo-2025.svg"
   inkscape:version="1.4.2 (ebf0e94, 2025-05-08)"
   xmlns:inkscape="http://www.inkscape.org/namespaces/inkscape"
   xmlns:sodipodi="http://sodipodi.sourceforge.net/DTD/sodipodi-0.dtd"
   xmlns="http://www.w3.org/2000/svg"
   xmlns:svg="http://www.w3.org/2000/svg">
  <sodipodi:namedview
     id="namedview2"
     pagecolor="#505050"
     bordercolor="#eeeeee"
     borderopacity="1"
     inkscape:showpageshadow="0"
     inkscape:pageopacity="0"
     inkscape:pagecheckerboard="0"
     inkscape:deskcolor="#505050"
     inkscape:zoom="0.79711539"
     inkscape:cx="320.53076"
     inkscape:cy="294.18576"
     inkscape:window-width="1920"
     inkscape:window-height="1009"
     inkscape:window-x="-8"
     inkscape:window-y="-8"
     inkscape:window-maximized="1"
     inkscape:current-layer="svg2" />
  <g
     clip-path="url(#a1)"
     fill="none"
     id="g1"
     transform="matrix(8,0,0,8,0,-0.71200562)">
    <ellipse
       fill="#cf008c"
       id="ellipse1"
       cx="32"
       cy="32.326"
       rx="32"
       ry="32.237" />
    <path
       d="m 24.956,38.775 a 1.91,1.91 0 0 1 -2.054,-0.592 1.946,1.946 0 0 1 0.53,-2.946 1.912,1.912 0 0 1 2.129,0.17 1.938,1.938 0 0 1 0.516,2.406 1.936,1.936 0 0 1 -1.125,0.963 l 0.003,-0.001 z M 14.032,37.932 A 1.911,1.911 0 0 1 11.981,37.337 1.944,1.944 0 0 1 11.739,35.2 c 0.173,-0.34 0.443,-0.621 0.775,-0.808 a 1.912,1.912 0 0 1 2.128,0.173 1.938,1.938 0 0 1 0.516,2.404 1.936,1.936 0 0 1 -1.126,0.963 z M 48.657,22.524 a 1.91,1.91 0 0 1 2.052,0.593 1.945,1.945 0 0 1 -0.531,2.946 1.912,1.912 0 0 1 -2.129,-0.172 1.938,1.938 0 0 1 -0.516,-2.404 1.936,1.936 0 0 1 1.124,-0.963 z m 5.987,5.15 a 4.637,4.637 0 0 1 -2.714,2.16 4.704,4.704 0 0 1 -3.748,-0.443 5.09,5.09 0 0 0 2.64,-0.14 5.122,5.122 0 0 0 2.22,-1.449 5.202,5.202 0 0 0 1.083,-5.03 5.194,5.194 0 0 0 -2.584,-2.988 5.133,5.133 0 0 0 -3.923,-0.29 c -3.027,0.973 -3.958,2.913 -4.353,5.262 a 5.086,5.086 0 0 0 -2.548,-1.923 5.047,5.047 0 0 0 -3.185,-0.019 5.137,5.137 0 0 0 -2.492,1.789 0.693,0.693 0 0 1 -0.751,0.246 5.075,5.075 0 0 0 -5.54,1.804 5.136,5.136 0 0 0 -1.026,2.863 7.979,7.979 0 0 0 -9.818,0.36 l 1.92,2.664 a 4.493,4.493 0 0 1 1.862,-1.068 4.748,4.748 0 0 1 3.671,0.415 5.212,5.212 0 0 0 -2.801,0.24 5.137,5.137 0 0 0 -2.753,2.476 C 18.282,31.761 15.232,30.144 11.86,31.217 a 5.09,5.09 0 0 0 -1.98,1.197 5.137,5.137 0 0 0 -1.252,1.954 5.168,5.168 0 0 0 0.504,4.502 c 0.42,0.662 0.986,1.217 1.653,1.624 a 5.07,5.07 0 0 0 6.387,-0.915 4.738,4.738 0 0 1 -2.602,2.448 4.692,4.692 0 0 1 -3.56,-0.078 l -0.002,3.442 A 8.06,8.06 0 0 0 15.46,45.19 c 3.351,-1.097 4.732,-4.13 4.97,-4.953 a 5.13,5.13 0 0 0 2.508,1.634 5.098,5.098 0 0 0 2.987,-0.05 6.072,6.072 0 0 0 2.54,-1.5 6.136,6.136 0 0 0 1.542,-2.528 l 0.693,2.149 3.385,-1.108 -2.743,-8.504 a 1.6,1.6 0 0 1 0.034,-1.114 c 0.144,-0.356 0.41,-0.646 0.751,-0.819 a 1.532,1.532 0 0 1 1.803,0.355 c 0.148,0.163 0.26,0.356 0.327,0.567 l 2.762,8.561 3.387,-1.108 -2.752,-8.53 a 1.585,1.585 0 0 1 0.034,-1.094 c 0.14,-0.35 0.4,-0.636 0.733,-0.808 a 1.532,1.532 0 0 1 1.822,0.337 c 0.15,0.164 0.263,0.359 0.332,0.571 l 2.761,8.562 3.386,-1.108 -0.97,-3.007 a 7.964,7.964 0 0 0 7.138,1.258 7.775,7.775 0 0 0 3.773,-2.493 z"
       fill="#ffffff"
       id="path1" />
  </g>
  <defs
     id="defs2">
    <clipPath
       id="a1">
      <path
         fill="#ffffff"
         transform="translate(0,0.089)"
         d="M 0,0 H 64 V 64.474 H 0 Z"
         id="path2" />
    </clipPath>
  </defs>
</svg>
