<?xml version="1.0" encoding="UTF-8"?>
<svg width="442.2003" height="83.6" version="1.1" viewBox="0 0 442.2002 83.6" xml:space="preserve" xmlns="http://www.w3.org/2000/svg">
<title>Nando's wordmark</title>
<desc>South African restaurant brand</desc>
<style type="text/css">
	.st0{fill-rule:evenodd;clip-rule:evenodd;fill:#CE1326;}
	.st1{fill-rule:evenodd;clip-rule:evenodd;fill:#020203;}
	.st2{fill-rule:evenodd;clip-rule:evenodd;fill:#FFFFFF;}
</style>
<path class="st0" d="m337.9985 62.4c-0.05-0.45-0.08-0.93-0.08-1.46v-0.11c0-0.06 0.01-0.1 0.01-0.16-0.02-2.67 1.11-6.64 1.43-7.52l0.06-0.17c1.05-2.89 1.48-4.09 2.9-6.18 2.38-3.5 3.45-4.62 6.01-6.34 2.28-1.53 5.36-1.86 5.6-1.89l0.06-0.01c0.39-0.06 1.09-0.09 1.87-0.09 0.92 0 1.75 0.06 2.13 0.13l0.07 0.01c0.27 0.01 2.67 0.25 4.84 2.35 2.29 2.22 3.58 5.21 3.83 8.91 0.13 1.88 0.01 3.45-0.45 6.02-0.82 4.56-2.48 7.66-3.71 9.46-1.93 2.8-3.56 4.71-6.15 6.17-1.27 0.72-3.64 2.05-7.57 2.05-1 0-2.05-0.09-3.14-0.26-1.25-0.2-2.97-1.3-3.09-1.37-0.11-0.07-0.74-0.59-1.01-0.85-2.02-2.01-3.17-4.77-3.61-8.69zm42.39-25.74c-6.85-6.76-17.08-7.77-22.58-7.77-2.93 0-4.86 0.28-5.08 0.31-13.27 1.97-23.04 6.96-29.05 14.83-6.13 8.03-5.95 16-5.75 18.25 1 11.21 7.66 17.88 19.79 19.82v0.04c0.15 0.03 3.75 0.68 8.98 0.68 6.24 0 11.92-0.9 16.88-2.68 5.25-1.81 8.74-4.63 8.88-4.74v-0.01c6.69-4.83 9.61-10.29 9.74-10.52 4.18-7.94 7.28-19.27-1.72-28.13zm12.45-4.93c-0.32 0.17-0.97 0.4-1.59 0.52-0.24 0.04-0.46 0.07-0.65 0.09-0.63 0.03-1.14-0.13-1.5-0.45-0.98-0.9-0.67-2.05-0.34-2.59 3.42-5.05 2.63-12.64 1.62-16.34l-0.03-0.07 0.01-0.03-0.03-0.39c-0.21-0.9-0.31-1.77-0.32-2.58-0.02-4.01 2.44-5.55 2.72-5.72 0.07-0.06 0.26-0.16 0.67-0.36l0.01-0.01 0.17-0.07c0.12-0.04 0.51-0.2 0.84-0.32 0.2-0.07 0.37-0.11 0.46-0.13 0.06-0.01 0.16-0.04 0.27-0.07 0.05-0.01 0.13-0.03 0.28-0.04 1.17-0.21 3.01-0.3 4.96 0.51 0.14 0.06 0.26 0.11 0.38 0.18 0.94 0.48 1.8 1.16 2.54 2.02 0.66 0.87 1.14 1.9 1.42 3.09 0.38 1.59 0.45 3.46 0.22 5.59 0 0.01-0.32 2.6-0.92 4.33l-0.59 1.78c-0.52 1.34-0.83 2.01-1.52 3.15-0.06 0.13-0.2 0.34-0.41 0.64-0.11 0.16-0.22 0.33-0.31 0.47-0.59 0.86-0.84 1.22-1.67 2.1-0.15 0.17-0.39 0.4-0.64 0.65l-0.28 0.27c-0.48 0.47-1.09 0.97-1.82 1.51-1.73 1.27-3.1 1.93-3.95 2.26zm49.36 33.41c0.07 3.71-1.96 7.78-5.43 10.9-3.16 2.84-7.7 5.01-12.78 6.1-1.22 0.27-5.64 1.13-11.16 1.13-4.13 0-7.89-0.48-11.19-1.43l0.02 0.04-1.01-0.31c-2.93-0.93-5.29-2.19-7-3.73-0.39-0.33-0.7-0.64-0.93-0.91-0.03-0.04-0.07-0.09-0.11-0.14-2.33-2.77-2.67-6.15-0.94-9.3 1.07-1.96 2.67-3.44 4.5-4.17 3.16-1.26 6.15-1.32 7.14-1.34h0.21c0.12-0.01 0.24-0.01 0.38-0.01 1.3 0 3.77 0.35 4.76 1.67 0.38 0.5 0.51 1.1 0.38 1.74-0.08 0.37-0.35 0.91-1.19 1.34-2.3 1.2-3.9 2.24-4.22 3.4-0.14 0.53-0.02 1.13 0.39 1.82 0.81 1.37 3.57 2.17 7.57 2.21h0.2c4.07 0 7.35-1.09 9-2.99 0.75-0.86 1.1-1.84 1.01-2.82-0.02-0.29-0.13-0.64-0.33-1.07-1.82-3.59-6.85-8.22-15.82-14.58-0.31-0.21-0.59-0.43-0.87-0.64-5.54-3.94-5.39-7.23-5.34-8.31l0.01-0.13c0.01-0.07 0.01-0.11 0.02-0.15-0.02-1.4 0.4-2.28 0.42-2.32l0.07-0.14c2.19-7.3 10.57-9.45 15.41-10.08 1.78-0.23 3.19-0.29 3.91-0.3l0.27-0.01c0.8-0.03 1.59-0.04 2.38-0.04 3.98 0 6.97 0.41 8.32 0.75 0.78 0.2 1.48 0.3 2.09 0.3 1.91 0 2.61-0.98 3.23-1.84l0.11-0.15c0.47-0.68 1.53-1.5 2.88-1.37l0.19 0.01c1.48 0.1 2.25 0.79 2.1 4.15-0.1 2.34-0.74 9.59-0.88 11.02-0.12 1.3-0.45 2.15-0.96 2.52-0.29 0.21-0.94 0.57-1.87 0.48-1.34-0.13-2.42-1.99-2.62-2.43h-0.01c-0.72-1.94-3.63-4.2-9.43-4.2h-0.35c-2.97 0.07-4 0.58-4.35 1.01-0.21 0.25-0.2 0.5-0.16 0.87l0.01 0.07c0.1 0.9 1.76 2.01 3.1 2.9 0.51 0.34 0.99 0.66 1.41 0.98 2.91 2.18 5.2 3.83 7.04 5.15 2.04 1.46 3.52 2.53 4.75 3.53 1.95 1.6 5.54 4.53 5.67 10.82zm-180.12-7.67c0.06-1.39 0.26-2.66 0.58-3.88l0.04-0.16c0.42-1.52 1.06-2.92 1.95-4.32 5.66-9.67 16.41-10.26 16.55-10.26 0.93-0.1 1.81-0.16 2.62-0.16 5.31 0 6.72 2.28 7.08 3.32 0.02 0.28 0.03 0.54 0.04 0.77 0.03 1.02-1.08 10.83-1.85 15.01-0.31 1.66-1.03 4.83-2.42 7.47-0.52 0.95-1.09 1.74-1.69 2.35-3.44 3.52-5.92 4.82-10.19 5.37-0.49 0.06-1.03 0.13-1.65 0.13-2.12 0-4.13-0.77-6.15-2.35-2.59-2.01-5.23-6.56-4.91-13.29zm50.4 10.66c-0.35-0.1-0.69-0.14-1.04-0.14h-0.11c-1.14 0-1.99 0.53-2.74 1-0.68 0.42-1.27 0.79-2.02 0.79-0.14-0.01-0.25-0.07-0.35-0.2-0.88-1.09-0.23-5.18 0.02-6.72l0.06-0.42c0.37-2.28 0.76-4.99 1.25-8.49 0.29-1.79 0.57-3.57 0.83-5.23 0.67-4.33 2.31-13.08 3.31-17.67 2.7-12.43 5.79-20.63 7.28-24.58 0.71-1.89 0.94-2.5 0.93-2.86-0.02-0.62-0.07-2.52-1.67-3.38-0.28-0.15-0.61-0.23-0.99-0.23-1.84 0-4.63 1.85-6.14 2.94-11.87 8.7-16.64 23.88-18.33 29.56-0.16-0.07-0.34-0.17-0.52-0.26-0.2-0.1-0.41-0.21-0.62-0.31-4.77-2.15-11.15-2.55-11.41-2.57-0.04 0-0.92-0.09-2.4-0.09h-0.17c-1.17 0-2.38 0.04-3.6 0.14-6.16 0.41-10.4 1.83-11.55 2.26-1.29 0.48-2.95 1.12-4.26 1.78-7.13 3.41-12.29 8.71-15.38 15.77-0.65 1.71-6.01 16.96 6.02 26.76 0.22 0.18 0.44 0.36 0.66 0.53l0.28 0.2c0.37 0.27 0.73 0.53 1.1 0.77l0.36 0.23c0.16 0.1 0.31 0.19 0.46 0.28 1.44 0.89 2.92 1.63 4.52 2.3l0.1 0.04c1.28 0.53 3.25 1.1 5.55 1.6 1.55 0.34 4.91 0.61 6.27 0.61h0.06 0.32c7.8-0.25 12.86-2.12 15.89-3.82v0.03l0.8-0.5c1.8-1.13 2.95-2.23 3.61-2.99 0.14 0.3 0.25 0.5 0.33 0.64h-0.01c1.02 1.78 4.54 5.18 10.6 5.31 0.89 0.03 1.84-0.03 2.78-0.14 3.48-0.44 9.6-2.11 11.49-8.33 0.25-0.82 0.57-2.36-0.05-3.48-0.32-0.57-0.83-0.95-1.52-1.13zm-226.5-51.19-10.51 60.74c-0.06 0.41-0.4 2.31-0.4 2.33-0.31 1.57-1.96 2.63-3.31 2.63h-0.13c-3.32 0-7.11-4.97-7.27-5.18l-0.39-0.56c-4.12-5.29-27.02-40.65-31.42-47.45l-6.39 37.3c-0.02 0.09-1.22 5.65 1.9 7.01 4.86 2.11 4.82 3.86 4.4 5.33-0.19 0.68-0.66 1.63-2.42 1.9-0.12 0.03-0.29 0.06-0.44 0.06-0.05 0.01-0.08 0.01-0.12 0.01l-0.13-0.01c-0.42 0-0.89-0.06-1.38-0.13-0.42-0.06-0.86-0.11-1.32-0.14l-0.36-0.03c-1.18-0.09-4.75-0.36-9.97-0.36-3.55 0-7.22 0.3-9.64 0.5-1.12 0.1-2.01 0.17-2.6 0.19l-0.08 0.03s-0.22 0.03-0.56 0.03c-0.64 0-1.84-0.13-2.65-1.02-0.62-0.68-0.88-1.65-0.76-2.88 0.17-1.76 2.38-2.3 4.51-2.82l0.2-0.04c4.45-1.09 5.97-6.3 6.42-8.49 0.01-0.06 0.02-0.1 0.03-0.14 0.87-5.05 2.88-17.45 4.65-28.39 1.65-10.19 3.08-18.99 3.44-20.98 0.61-3.42-0.42-5.91-3.15-7.62l-0.1-0.04c-1.29-0.6-1.88-0.88-3.09-1.68-0.8-0.52-1.65-1.83-1.6-2.86 0.06-1.1 0.84-2.04 1.88-2.32v-0.01l0.16-0.03c0.05-0.01 0.09-0.01 0.14-0.03l0.06-0.01c0.04-0.01 0.91-0.15 2.36-0.29h0.08v-0.01h0.07c1.86-0.18 3.78-0.27 5.69-0.27 0.61 0 1.24 0.01 1.89 0.03 0.53 0 1.05 0.01 1.5 0.03h0.22c0.58 0 1.51 0.03 2.71 0.2 0.54 0.06 0.79 0.11 0.79 0.11 8.55 1.37 16.31 8.59 25.17 23.39 3.24 5.41 7.25 11.87 10.47 17.06 1.15 1.85 2.17 3.5 2.99 4.83l5.11-30.4c0.01-0.06 0.88-6.37-3.47-8.15-2.5-1.02-3.92-2.67-3.71-4.33 0.23-1.91 1.71-2.93 3.87-2.62l0.13 0.03c0.26 0.03 0.52 0.06 0.8 0.1 0.42 0.06 0.86 0.11 1.32 0.14l0.35 0.03c1.18 0.09 4.74 0.37 9.99 0.37 3.55 0 7.22-0.31 9.65-0.51 1.37-0.11 2.36-0.2 2.91-0.2 0.2 0 0.34 0.01 0.46 0.04h0.01c0.98 0 1.83 0.59 2.17 1.48l0.04 0.01 0.09 0.28c0.46 2.54-1.32 4.35-5.31 5.37-5 1.27-5.85 8.07-5.86 8.14l-0.03 0.27zm149.6 36.17v0.32c0.05 1.56-0.55 8.5-4.33 14.02-4.27 6.25-9.86 10.05-13.8 12.15-0.41 0.21-0.81 0.43-1.21 0.65-2.47 1.34-5.03 2.74-8.14 3.31-0.19 0.03-0.41 0.04-0.55 0.04-0.18 0-0.77-0.01-1.16-0.17l-0.09-0.03c-0.59-0.24-1.4-0.56-1.44-1.79-0.01-0.28 0.12-0.68 0.78-1.85 1.85-2.48 7.9-11.42 9.47-24.37 0.88-7.21 0.1-12.22-2.34-14.87-1.56-1.71-3.85-2.53-6.98-2.53-0.41 0-0.83 0.01-1.26 0.04-8.31 0.52-12.19 8.37-13.08 12.45-0.85 4.77-2.02 11.56-2.83 16.5-0.16 1.57-0.26 5.38 2.42 6.32 2.57 0.91 3.82 2.54 3.44 4.45-0.29 1.48-1.33 2.36-2.85 2.41-2.12 0.07-4.2-0.03-6.18-0.14-1.21-0.06-2.35-0.13-3.46-0.14-2.13-0.03-4.31-0.06-6.47-0.06-1.03 0-1.99 0.01-2.85 0.01-0.31 0.01-0.62 0.01-0.89 0.01-0.51 0-0.9 0.01-1.27 0.01-0.39 0.01-0.77 0.01-1.3 0.01-0.24 0-0.58 0.01-1 0.03-0.96 0.04-2.28 0.1-3.56 0.03-1.47-0.04-2.12-0.2-2.56-0.6-0.75-0.57-0.8-1.61-0.79-2.03 0.03-1.06 0.39-2 1.06-2.72 0.73-0.8 1.65-1.04 2.53-1.27 1.63-0.42 3.32-0.87 4.37-5.1 0.64-3.78 1.49-9.15 2.31-14.35 0.79-4.97 1.53-9.66 1.98-12.27 0-0.11 0.02-0.25 0.05-0.4 0.03-0.17 0.07-0.45 0.01-0.51-0.05-0.06-0.37-0.16-1-0.1-0.37 0.01-5.18 0.26-6.1-2.38-1.15-3.3 1.16-4.11 2.27-4.51l0.28-0.1c1.18-0.45 13.28-3.91 15.67-4.11 0.29-0.03 0.58-0.07 0.87-0.1 0.45-0.06 0.92-0.13 1.36-0.13 0.71 0 1.26 0.17 1.68 0.52 1.82 1.49 1.74 3.74 1.67 5.56 3.13-2.94 8.09-6.17 15.07-6.73v0.01c0.47-0.11 1.43-0.18 3.37-0.18 0.18 0 0.35 0 0.5 0.01 2.35 0.07 4.52 0.38 5.14 0.46 7 0.97 11.95 3.63 16.05 8.64 2.41 2.94 5.25 8.02 5.14 15.53zm-100.56-10.41c0.02 1-1.07 10.65-1.83 14.76-0.39 2.08-1.56 7.2-4.16 9.86-3.4 3.48-5.84 4.77-10.06 5.32-0.49 0.06-1.02 0.13-1.63 0.13-2.08 0-4.07-0.76-6.06-2.32-2.55-2-5.16-6.51-4.84-13.17 0.07-1.37 0.25-2.63 0.57-3.84l0.04-0.16c0.41-1.5 1.04-2.89 1.93-4.28 5.58-9.58 16.19-10.16 16.33-10.17 0.91-0.1 1.78-0.16 2.58-0.16 6.94 0.03 7.12 3.88 7.13 4.03zm21.16 25.14c-0.35-0.1-0.7-0.14-1.03-0.14-1.12 0-1.97 0.53-2.71 0.99-0.67 0.42-1.25 0.79-1.97 0.79h-0.12c-0.15-0.01-0.25-0.07-0.35-0.19-0.87-1.07-0.23-5.14 0.01-6.67l0.06-0.42c0.63-3.93 1.26-8.57 1.8-12.5l0.02 0.03 0.29-2.15c0.32-2.33 0.92-6.68 0.94-7.71 0.05-3.35-0.74-4.1-1.67-4.98l-0.25-0.24c-1.43-1.41-3.37-3.11-6.85-5.14-0.87-0.51-2.23-1.28-3.39-1.13-0.94 0.13-1.89 1.08-2.42 1.97-0.2 0.33-0.49 1.07-0.84 1.93l-0.07 0.18c-0.09 0.09-0.17 0.15-0.27 0.22-0.22 0.15-0.68-0.11-1.16-0.36-0.2-0.11-0.41-0.22-0.63-0.32-4.71-2.13-11.01-2.53-11.26-2.55-0.03 0-0.9-0.07-2.37-0.07-1.17 0-2.39 0.04-3.61 0.14-6.08 0.41-10.27 1.82-11.4 2.24-1.27 0.47-2.91 1.1-4.21 1.76-7.03 3.37-12.14 8.62-15.18 15.62-0.64 1.69-5.94 16.79 5.94 26.51 0.22 0.18 0.43 0.36 0.65 0.53l0.27 0.2c0.36 0.27 0.72 0.52 1.08 0.75l0.36 0.24c0.16 0.1 0.31 0.19 0.45 0.27 1.43 0.88 2.89 1.62 4.47 2.27l0.91 0.32-0.02-0.09c1.99 0.73 3.51 1.1 4.37 1.31l0.29 0.07c1.64 0.44 5.05 0.61 6.2 0.61h0.27c7.69-0.24 12.69-2.1 15.68-3.78v0.01l0.8-0.49c1.81-1.14 2.95-2.25 3.59-3l0.07 0.17 0.04-0.06c0.12 0.26 0.21 0.43 0.29 0.56h-0.01c1.04 1.82 4.63 5.26 10.81 5.26 0.74 0 1.51-0.06 2.29-0.15 3.43-0.44 9.47-2.09 11.34-8.25 0.25-0.81 0.57-2.34-0.05-3.45-0.27-0.54-0.77-0.92-1.45-1.11z"/>
</svg>
