<?xml version="1.0" encoding="UTF-8"?>
<svg id="Layer_1" data-name="Layer 1" xmlns="http://www.w3.org/2000/svg" version="1.1" xmlns:xlink="http://www.w3.org/1999/xlink" viewBox="0 0 361 64.8">
  <defs>
    <style>
      .cls-1 {
        fill: url(#linear-gradient);
      }

      .cls-1, .cls-2 {
        stroke-width: 0px;
      }

      .cls-2 {
        fill: none;
      }

      .cls-3 {
        clip-path: url(#clippath);
      }
    </style>
    <clipPath id="clippath">
      <rect class="cls-2" x="0" width="361" height="64.8"/>
    </clipPath>
    <linearGradient id="linear-gradient" x1="47.3" y1="1146.6" x2="323.5" y2="958.2" gradientTransform="translate(0 -1013.2)" gradientUnits="userSpaceOnUse">
      <stop offset=".3" stop-color="#f05"/>
      <stop offset="1" stop-color="#ff8242"/>
    </linearGradient>
  </defs>
  <g class="cls-3">
    <path class="cls-1" d="M129.9,27.2c-2.1-3.6-5-6.6-8.6-8.6-3.6-2.1-7.7-3.1-12.1-3.1s-8.5,1.1-12.1,3.1c-3.6,2.1-6.5,5-8.6,8.6-2.1,3.7-3.2,7.9-3.2,12.6s1.1,9,3.2,12.6c2.1,3.7,5,6.5,8.6,8.6,3.6,2,7.6,3.1,12.1,3.1s8.5-1,12.1-3.1c3.6-2,6.5-4.9,8.6-8.6,2.1-3.7,3.2-7.9,3.2-12.6s-1.1-9-3.2-12.6h0ZM117.4,45.6c-.9,1.6-2,2.8-3.5,3.7-1.4.9-3,1.3-4.8,1.3s-3.3-.4-4.8-1.3c-1.5-.9-2.6-2.1-3.5-3.7-.9-1.6-1.3-3.5-1.3-5.7s.4-4.2,1.3-5.8,2-2.8,3.5-3.7c1.4-.9,3-1.3,4.8-1.3s3.3.4,4.8,1.3,2.6,2.1,3.5,3.7c.9,1.6,1.3,3.6,1.3,5.8s-.4,4.1-1.3,5.7ZM258.2,26.2c1.8,3.1,2.8,6.8,2.8,10.9v19.5c0,3.8-3.1,6.9-6.9,6.9h-4.7c-1.5,0-2.8-1.2-2.8-2.8v-24c0-1.5-.3-2.7-.8-3.7-.6-1-1.3-1.8-2.2-2.4s-1.9-.8-3.1-.8-2.1.3-3.1.8c-.9.6-1.7,1.3-2.2,2.4-.6,1-.8,2.3-.8,3.7v19.8c0,3.8-3.1,6.9-6.9,6.9h-4.7c-1.5,0-2.8-1.2-2.8-2.8v-24c0-1.5-.3-2.7-.8-3.7-.6-1-1.3-1.8-2.2-2.4s-1.9-.8-3.1-.8-2.1.3-3.1.8c-.9.6-1.7,1.3-2.2,2.4-.6,1-.8,2.3-.8,3.7v19.8c0,3.8-3.1,6.9-6.9,6.9h-4.7c-1.5,0-2.8-1.2-2.8-2.8v-23.6c0-4.1.9-7.7,2.8-10.9,1.8-3.1,4.3-5.6,7.4-7.4,3.1-1.8,6.6-2.7,10.4-2.7s7.3.9,10.4,2.7c1,.6,2,1.3,2.9,2.1h0c.9-.8,1.9-1.5,2.9-2.1,3.1-1.8,6.6-2.7,10.4-2.7s7.3.9,10.4,2.7c3.1,1.8,5.6,4.3,7.4,7.4h0l-.2.2ZM55.7,56.6c0,3.8-3.1,6.9-6.9,6.9h-4.7c-1.5,0-2.8-1.2-2.8-2.8V6.9c0-3.8,3.1-6.9,6.9-6.9h4.7c1.5,0,2.8,1.2,2.8,2.8v16.9c4.2-2.8,7-3.4,10.2-3.4,7.1,0,16.3,2.9,16.3,19.7v20.6c0,3.8-3.1,6.9-6.9,6.9h-4.7c-1.5,0-2.8-1.2-2.8-2.8v-24.7c0-1.7-.6-3.2-1.7-4.3-1.1-1.2-2.2-1.8-4-1.8s-3.6.6-4.7,1.8c-1.1,1.2-1.7,2.7-1.7,4.3v20.6h0ZM307,16.5h-4.3c-2,0-3.8.7-5.2,2.1-.2.2-.3.4-.5.6-1.4-1-3-1.9-4.8-2.6-2-.8-4.2-1.2-6.4-1.2-4.1,0-7.8,1.1-11.2,3.2-3.3,2.1-5.9,5-7.8,8.7-1.9,3.6-2.8,7.9-2.8,12.5s1,8.9,2.8,12.5c1.9,3.7,4.5,6.6,7.8,8.7,3.3,2.1,7.1,3.2,11.2,3.2s4.5-.4,6.4-1.2c1.8-.7,3.4-1.6,4.8-2.6.2.3.4.6.7.8,1.4,1.4,3.1,2.1,5.2,2.1h4.1c1.7,0,3.1-1.4,3.1-3.1V19.6c0-1.7-1.4-3.1-3.1-3.1h0ZM295.4,45.6c-.9,1.6-2,2.8-3.5,3.7-1.4.9-3,1.3-4.8,1.3s-3.3-.4-4.8-1.3c-1.5-.9-2.6-2.1-3.5-3.7-.9-1.6-1.3-3.6-1.3-5.8s.4-4.2,1.3-5.8,2-2.8,3.5-3.7c1.4-.9,3-1.3,4.8-1.3s3.3.4,4.8,1.3,2.6,2.1,3.5,3.7c.9,1.6,1.3,3.6,1.3,5.8s-.4,4.2-1.3,5.8ZM.9,56.4c-1.2-1.3-.9-2.3-.8-2.8,0-.5.7-2.7,2.6-4.9,2.1-2.5,4.5-2.6,6.1-2.2.8.2,1.6.5,2.3,1,1.4,1,5.2,3.6,8.9,3.8,2.3,0,3.5-1.1,3.6-1.7.6-2.8-5.4-3.4-10.6-5.2-5.1-1.8-11.2-5.5-11.2-14s7.7-14.4,16.2-14.9c9.9-.5,16.7,5.3,17.9,6.4,1.2,1.1,1,2.1.9,2.7,0,.5-.5,2.6-2.2,4.8-1.9,2.5-4.2,2.7-5.7,2.5-.8-.1-1.6-.4-2.3-.9-1.4-.9-5.2-3.1-8.7-3-1.2,0-2.1.6-2.3,1.3-1.2,3.1,6.1,3.6,11.9,5.9s10.8,5.8,10.6,14.1c-.2,10.4-9.7,15-19.1,15S1.8,57.7.7,56.5h.2ZM193.3,22.5l-14.3,39.1c-.4,1.1-1.4,1.8-2.6,1.8h-4c-2.4,0-4.5-1.5-5.2-3.8l-4.4-13.5-4.4,13.5c-.7,2.3-2.9,3.8-5.2,3.8h-4c-1.2,0-2.2-.7-2.6-1.8l-14.3-39.1c-1-2.7.9-5.5,3.8-5.6l7-.2c1.2,0,2.3.7,2.7,1.8l7.2,19.7,4.6-12.3c.6-1.6,2.1-2.6,3.8-2.6h3.5c1.7,0,3.2,1.1,3.8,2.6l4.4,12.2,7.1-19.7c.4-1.1,1.5-1.9,2.7-1.8l7,.2c2.8,0,4.7,2.9,3.8,5.6h-.4ZM345.4,34.5l-3.3-3.3c-1.9-1.9-1.9-4.9,0-6.8l6.7-6.7c2.9-2.9,7.6-2.8,10.3.2,2.7,2.9,2.5,7.3-.3,10.1l-6.6,6.6c-1.9,1.9-4.9,1.9-6.8,0h0ZM345.4,45.2l-3.3,3.3c-1.9,1.9-1.9,4.9,0,6.8l6.7,6.7c2.9,2.9,7.6,2.8,10.3-.2,2.7-2.9,2.5-7.3-.3-10.1l-6.6-6.6c-1.9-1.9-4.9-1.9-6.8,0h0ZM344.2,37.1l-18.7-18.7c-2.8-2.8-7.2-3-10.1-.3-3,2.8-3.1,7.5-.2,10.4l11.3,11.3h0l-11.3,11.3c-2.9,2.9-2.8,7.6.2,10.4,2.9,2.7,7.3,2.5,10.1-.3l18.7-18.7c.7-.7,1.1-1.7,1.1-2.7s-.4-1.9-1.1-2.7h0Z"/>
  </g>
</svg>